<svg width="24" height="24" viewBox="0 0 24 24" fill="none" xmlns="http://www.w3.org/2000/svg">
<path d="M12 7.33333V16.6667M9.66667 14.4749L10.3503 14.9874C11.2611 15.6711 12.7381 15.6711 13.6497 14.9874C14.5612 14.3038 14.5612 13.1962 13.6497 12.5126C13.1947 12.1703 12.5973 12 12 12C11.4361 12 10.8722 11.8289 10.4421 11.4874C9.58189 10.8038 9.58189 9.69622 10.4421 9.01256C11.3023 8.32889 12.6977 8.32889 13.5579 9.01256L13.8807 9.26922M19 12C19 12.9193 18.8189 13.8295 18.4672 14.6788C18.1154 15.5281 17.5998 16.2997 16.9497 16.9497C16.2997 17.5998 15.5281 18.1154 14.6788 18.4672C13.8295 18.8189 12.9193 19 12 19C11.0807 19 10.1705 18.8189 9.32122 18.4672C8.47194 18.1154 7.70026 17.5998 7.05025 16.9497C6.40024 16.2997 5.88463 15.5281 5.53284 14.6788C5.18106 13.8295 5 12.9193 5 12C5 10.1435 5.7375 8.36301 7.05025 7.05025C8.36301 5.7375 10.1435 5 12 5C13.8565 5 15.637 5.7375 16.9497 7.05025C18.2625 8.36301 19 10.1435 19 12Z" stroke="black" stroke-linecap="round" stroke-linejoin="round"/>
</svg>
