<svg width="56" height="56" viewBox="0 0 56 56" fill="none" xmlns="http://www.w3.org/2000/svg">
<g id="gitbook">
<g id="Ellipse 514" filter="url(#filter0_d_605_1835)">
<circle cx="28" cy="24" r="20" fill="white"/>
</g>
<path id="Vector" fill-rule="evenodd" clip-rule="evenodd" d="M29.865 14.2617L39.6435 19.1435C40.0954 19.3691 40.1025 20.0105 39.6557 20.2459L26.9557 26.9385C26.6066 27.1224 26.2187 27.2206 25.8241 27.2249C25.4295 27.2293 25.0396 27.1396 24.6865 26.9634L16.7122 22.9823C15.7409 22.5931 14.6552 23.3047 14.6552 24.3765C14.6552 25.2383 15.1428 26.0262 15.9149 26.4117L23.9093 30.4027C24.3973 29.9066 25.0768 29.5989 25.8283 29.5989C26.5583 29.5989 27.2204 29.8893 27.705 30.3607L37.6623 25.1135C37.6345 24.9575 37.6206 24.7993 37.6207 24.6408C37.6207 23.1576 38.8249 21.9553 40.3103 21.9553C41.7958 21.9553 43 23.1576 43 24.6408C43 26.124 41.7958 27.3264 40.3103 27.3264C39.584 27.3264 38.925 27.039 38.441 26.5718L28.4782 31.8219C28.5047 31.9747 28.518 32.1294 28.5179 32.2845C28.5179 33.7676 27.3137 34.97 25.8283 34.97C24.3428 34.97 23.1386 33.7676 23.1386 32.2845C23.1386 32.1473 23.1489 32.0126 23.1688 31.8809L15.0587 27.832C13.797 27.2022 13 25.9146 13 24.5061V23.7216C13 22.649 13.5946 21.6644 14.5447 21.1638L27.5959 14.2866C27.945 14.1027 28.3329 14.0045 28.7274 14.0001C29.122 13.9958 29.512 14.0855 29.865 14.2617ZM25.8283 33.3174C26.3996 33.3174 26.8628 32.8549 26.8628 32.2845C26.8628 31.714 26.3996 31.2515 25.8283 31.2515C25.257 31.2515 24.7938 31.714 24.7938 32.2845C24.7938 32.8549 25.257 33.3174 25.8283 33.3174ZM41.3448 24.6408C41.3448 25.2113 40.8817 25.6737 40.3103 25.6737C39.739 25.6737 39.2759 25.2113 39.2759 24.6408C39.2759 24.0704 39.739 23.6079 40.3103 23.6079C40.8817 23.6079 41.3448 24.0704 41.3448 24.6408Z" fill="#5DBF69"/>
</g>
<defs>
<filter id="filter0_d_605_1835" x="0" y="0" width="56" height="56" filterUnits="userSpaceOnUse" color-interpolation-filters="sRGB">
<feFlood flood-opacity="0" result="BackgroundImageFix"/>
<feColorMatrix in="SourceAlpha" type="matrix" values="0 0 0 0 0 0 0 0 0 0 0 0 0 0 0 0 0 0 127 0" result="hardAlpha"/>
<feOffset dy="4"/>
<feGaussianBlur stdDeviation="4"/>
<feComposite in2="hardAlpha" operator="out"/>
<feColorMatrix type="matrix" values="0 0 0 0 0 0 0 0 0 0 0 0 0 0 0 0 0 0 0.1 0"/>
<feBlend mode="normal" in2="BackgroundImageFix" result="effect1_dropShadow_605_1835"/>
<feBlend mode="normal" in="SourceGraphic" in2="effect1_dropShadow_605_1835" result="shape"/>
</filter>
</defs>
</svg>
