<svg width="56" height="56" viewBox="0 0 56 56" fill="none" xmlns="http://www.w3.org/2000/svg">
<g filter="url(#filter0_d_605_1839)">
<circle cx="28" cy="24" r="20" fill="white"/>
</g>
<path d="M26.9211 36.4785C26.3655 36.4804 25.8318 36.2621 25.4369 35.8713C25.042 35.4805 24.8181 34.9491 24.8143 34.3936L24.8059 32.9014C20.6654 33.8019 19.792 31.1453 19.792 31.1453C19.1148 29.4256 18.1391 28.9685 18.1391 28.9685C16.7889 28.044 18.2414 28.0628 18.2414 28.0628C19.7346 28.1671 20.5214 29.5967 20.5214 29.5967C21.8487 31.8715 24.0035 31.2141 24.8519 30.8343C24.9854 29.8722 25.3715 29.2159 25.7973 28.8433C22.4915 28.4677 19.0167 27.1905 19.0167 21.4889C19.0167 19.8642 19.5979 18.5369 20.5506 17.4945C20.3962 17.1188 19.887 15.6058 20.6946 13.5564C20.6946 13.5564 21.9447 13.1567 24.7882 15.0819C26.0024 14.7516 27.255 14.5831 28.5134 14.5811C29.7771 14.5863 31.0511 14.7511 32.2407 15.0819C35.0821 13.1567 36.3301 13.5564 36.3301 13.5564C37.1399 15.6068 36.6306 17.1199 36.4762 17.4945C37.4299 18.5359 38.008 19.8642 38.008 21.4889C38.008 27.2051 34.5259 28.4635 31.2129 28.8319C31.7461 29.2941 32.2219 30.1988 32.2219 31.5877C32.2219 33.5797 32.2146 34.3925 32.2146 34.3925C32.2108 34.9478 31.9872 35.479 31.5928 35.8699C31.1984 36.2608 30.6652 36.4796 30.1099 36.4785H26.9211Z" fill="#5DBF69"/>
<defs>
<filter id="filter0_d_605_1839" x="0" y="0" width="56" height="56" filterUnits="userSpaceOnUse" color-interpolation-filters="sRGB">
<feFlood flood-opacity="0" result="BackgroundImageFix"/>
<feColorMatrix in="SourceAlpha" type="matrix" values="0 0 0 0 0 0 0 0 0 0 0 0 0 0 0 0 0 0 127 0" result="hardAlpha"/>
<feOffset dy="4"/>
<feGaussianBlur stdDeviation="4"/>
<feComposite in2="hardAlpha" operator="out"/>
<feColorMatrix type="matrix" values="0 0 0 0 0 0 0 0 0 0 0 0 0 0 0 0 0 0 0.1 0"/>
<feBlend mode="normal" in2="BackgroundImageFix" result="effect1_dropShadow_605_1839"/>
<feBlend mode="normal" in="SourceGraphic" in2="effect1_dropShadow_605_1839" result="shape"/>
</filter>
</defs>
</svg>
