<svg width="24" height="24" viewBox="0 0 24 24" fill="none" xmlns="http://www.w3.org/2000/svg">
<path d="M18 7.96154C18 9.59703 15.3135 10.9231 12 10.9231C8.68655 10.9231 6 9.59703 6 7.96154M18 7.96154C18 6.32605 15.3135 5 12 5C8.68655 5 6 6.32605 6 7.96154M18 7.96154V16.0385C18 17.6739 15.3135 19 12 19C8.68655 19 6 17.6739 6 16.0385V7.96154M18 7.96154V10.6538M6 7.96154V10.6538M18 10.6538V13.3462C18 14.9816 15.3135 16.3077 12 16.3077C8.68655 16.3077 6 14.9816 6 13.3462V10.6538M18 10.6538C18 12.2893 15.3135 13.6154 12 13.6154C8.68655 13.6154 6 12.2893 6 10.6538" stroke="black" stroke-linecap="round" stroke-linejoin="round"/>
</svg>
