<svg width="156" height="38" viewBox="0 0 156 38" fill="none" xmlns="http://www.w3.org/2000/svg">
<path d="M36.6896 6C37.4719 6 37.6195 6.41042 37.0194 6.91646L30.551 12.3702C29.9507 12.8758 28.829 13.2866 28.0475 13.2866H25.8416V7.42888C25.8416 7.04992 25.9909 6.68648 26.2566 6.41851C26.5223 6.15054 26.8827 6 27.2584 6H36.6896ZM4.69906 13.2866H13.0126C13.3884 13.2866 13.7488 13.4372 14.0145 13.7051C14.2802 13.9731 14.4295 14.3365 14.4295 14.7155V31.4268C14.4295 32.216 14.9158 32.4453 15.5161 31.939L21.9844 26.4853C22.5847 25.9797 23.0636 24.9294 23.0632 24.1404V7.42888C23.0632 7.04992 22.9139 6.68648 22.6482 6.41851C22.3825 6.15054 22.0221 6 21.6463 6H13.3413C12.5581 6 11.4375 6.41042 10.8374 6.91646L4.36903 12.3702C3.76872 12.8762 3.91629 13.2866 4.69906 13.2866Z" fill="url(#paint0_linear_398_1903)"/>
<path d="M147.456 26.2561C146.662 26.2561 145.978 26.0953 145.405 25.7736C144.836 25.4485 144.397 24.9894 144.088 24.3962C143.78 23.7997 143.626 23.0943 143.626 22.28C143.626 21.4857 143.78 20.7887 144.088 20.1888C144.397 19.589 144.831 19.1215 145.39 18.7864C145.953 18.4512 146.614 18.2837 147.371 18.2837C147.88 18.2837 148.354 18.3658 148.793 18.53C149.236 18.6909 149.621 18.9338 149.95 19.2589C150.281 19.5839 150.539 19.9928 150.724 20.4854C150.908 20.9747 151 21.5477 151 22.2046V22.7927H144.481V21.4656H148.984C148.984 21.1573 148.917 20.8842 148.783 20.6463C148.649 20.4083 148.463 20.2223 148.225 20.0883C147.991 19.9509 147.718 19.8822 147.406 19.8822C147.081 19.8822 146.793 19.9576 146.541 20.1084C146.294 20.2559 146.099 20.4552 145.958 20.7066C145.818 20.9546 145.746 21.231 145.742 21.536V22.7977C145.742 23.1797 145.813 23.5098 145.953 23.788C146.097 24.0661 146.3 24.2806 146.562 24.4314C146.823 24.5822 147.133 24.6576 147.492 24.6576C147.729 24.6576 147.947 24.6241 148.145 24.5571C148.343 24.4901 148.512 24.3895 148.653 24.2555C148.793 24.1214 148.901 23.9572 148.974 23.7629L150.955 23.8935C150.854 24.3694 150.648 24.785 150.337 25.1402C150.028 25.4921 149.63 25.7669 149.14 25.9646C148.654 26.1589 148.093 26.2561 147.456 26.2561Z" fill="url(#paint1_linear_398_1903)"/>
<path d="M138.458 29.1616C137.765 29.1616 137.17 29.0661 136.674 28.8751C136.181 28.6874 135.789 28.431 135.498 28.106C135.206 27.7809 135.017 27.4156 134.93 27.0101L136.91 26.7437C136.97 26.8979 137.066 27.042 137.197 27.176C137.327 27.3101 137.5 27.4173 137.714 27.4977C137.932 27.5815 138.197 27.6234 138.509 27.6234C138.974 27.6234 139.358 27.5095 139.66 27.2816C139.965 27.0571 140.117 26.68 140.117 26.1506V24.738H140.027C139.933 24.9525 139.792 25.1553 139.604 25.3463C139.417 25.5373 139.176 25.6931 138.881 25.8138C138.586 25.9344 138.234 25.9947 137.825 25.9947C137.245 25.9947 136.717 25.8607 136.242 25.5926C135.769 25.3211 135.392 24.9073 135.111 24.351C134.832 23.7913 134.693 23.0842 134.693 22.2297C134.693 21.355 134.836 20.6245 135.121 20.038C135.405 19.4516 135.784 19.0126 136.257 18.721C136.733 18.4295 137.254 18.2837 137.82 18.2837C138.252 18.2837 138.614 18.3574 138.906 18.5049C139.197 18.649 139.432 18.8299 139.61 19.0478C139.79 19.2622 139.93 19.4734 140.027 19.6811H140.107V18.3842H142.233V26.1807C142.233 26.8375 142.073 27.3871 141.751 27.8295C141.429 28.2718 140.984 28.6036 140.414 28.8248C139.847 29.0493 139.196 29.1616 138.458 29.1616ZM138.504 24.3862C138.849 24.3862 139.14 24.3007 139.378 24.1298C139.62 23.9555 139.804 23.7076 139.931 23.3858C140.062 23.0608 140.127 22.672 140.127 22.2196C140.127 21.7672 140.064 21.3751 139.936 21.0434C139.809 20.7083 139.625 20.4485 139.383 20.2642C139.142 20.0799 138.849 19.9878 138.504 19.9878C138.152 19.9878 137.855 20.0833 137.614 20.2743C137.373 20.462 137.19 20.7233 137.066 21.0585C136.942 21.3936 136.88 21.7806 136.88 22.2196C136.88 22.6653 136.942 23.0507 137.066 23.3758C137.193 23.6975 137.376 23.9472 137.614 24.1248C137.855 24.299 138.152 24.3862 138.504 24.3862Z" fill="url(#paint2_linear_398_1903)"/>
<path d="M128.316 21.6416V26.1053H126.175V18.3842H128.216V19.7465H128.306C128.477 19.2974 128.764 18.9422 129.166 18.6808C129.568 18.4161 130.055 18.2837 130.628 18.2837C131.165 18.2837 131.632 18.401 132.031 18.6356C132.43 18.8701 132.74 19.2053 132.961 19.6409C133.182 20.0732 133.293 20.5893 133.293 21.1892V26.1053H131.151V21.5712C131.155 21.0987 131.034 20.73 130.789 20.4653C130.545 20.1972 130.208 20.0632 129.779 20.0632C129.491 20.0632 129.236 20.1252 129.015 20.2492C128.797 20.3731 128.626 20.5541 128.502 20.792C128.382 21.0266 128.32 21.3098 128.316 21.6416Z" fill="url(#paint3_linear_398_1903)"/>
<path d="M120.165 26.2511C119.673 26.2511 119.234 26.1656 118.848 25.9947C118.463 25.8205 118.158 25.5641 117.933 25.2256C117.712 24.8838 117.602 24.4582 117.602 23.9488C117.602 23.5199 117.68 23.1596 117.838 22.8681C117.995 22.5765 118.21 22.342 118.481 22.1643C118.753 21.9867 119.061 21.8527 119.406 21.7622C119.755 21.6717 120.12 21.6081 120.502 21.5712C120.951 21.5243 121.313 21.4807 121.588 21.4405C121.863 21.3969 122.062 21.3333 122.186 21.2495C122.31 21.1657 122.372 21.0417 122.372 20.8775V20.8473C122.372 20.529 122.271 20.2827 122.07 20.1084C121.873 19.9341 121.591 19.847 121.226 19.847C120.84 19.847 120.534 19.9325 120.306 20.1034C120.078 20.2709 119.927 20.4821 119.854 20.7367L117.873 20.5759C117.974 20.1067 118.171 19.7012 118.466 19.3594C118.761 19.0142 119.141 18.7495 119.607 18.5652C120.076 18.3775 120.619 18.2837 121.236 18.2837C121.665 18.2837 122.075 18.334 122.467 18.4345C122.863 18.535 123.213 18.6909 123.518 18.902C123.826 19.1131 124.069 19.3846 124.247 19.7163C124.425 20.0447 124.513 20.4385 124.513 20.8976V26.1053H122.483V25.0346H122.422C122.298 25.2759 122.132 25.4887 121.925 25.673C121.717 25.854 121.467 25.9964 121.176 26.1003C120.884 26.2008 120.547 26.2511 120.165 26.2511ZM120.778 24.7732C121.093 24.7732 121.372 24.7112 121.613 24.5872C121.854 24.4599 122.044 24.289 122.181 24.0745C122.318 23.86 122.387 23.6171 122.387 23.3456V22.5263C122.32 22.5698 122.228 22.6101 122.111 22.6469C121.997 22.6804 121.868 22.7123 121.724 22.7424C121.579 22.7692 121.435 22.7944 121.291 22.8178C121.147 22.8379 121.016 22.8564 120.899 22.8731C120.648 22.91 120.428 22.9686 120.241 23.0491C120.053 23.1295 119.907 23.2384 119.803 23.3758C119.699 23.5098 119.647 23.6774 119.647 23.8785C119.647 24.17 119.753 24.3929 119.964 24.547C120.179 24.6978 120.45 24.7732 120.778 24.7732Z" fill="url(#paint4_linear_398_1903)"/>
<path d="M111.271 21.6416V26.1053H109.13V15.8105H111.211V19.7465H111.301C111.476 19.2907 111.757 18.9338 112.146 18.6758C112.535 18.4144 113.022 18.2837 113.609 18.2837C114.145 18.2837 114.612 18.401 115.011 18.6356C115.413 18.8668 115.725 19.2003 115.946 19.6359C116.171 20.0682 116.281 20.586 116.278 21.1892V26.1053H114.137V21.5712C114.14 21.0953 114.019 20.725 113.775 20.4603C113.533 20.1956 113.195 20.0632 112.759 20.0632C112.468 20.0632 112.21 20.1252 111.985 20.2492C111.764 20.3732 111.59 20.5541 111.462 20.7921C111.338 21.0266 111.275 21.3098 111.271 21.6416Z" fill="url(#paint5_linear_398_1903)"/>
<path d="M104.31 26.2561C103.519 26.2561 102.839 26.0886 102.269 25.7534C101.703 25.415 101.267 24.9458 100.962 24.346C100.661 23.7461 100.51 23.0558 100.51 22.2749C100.51 21.4841 100.662 20.7904 100.967 20.1939C101.276 19.594 101.713 19.1265 102.279 18.7914C102.846 18.4529 103.519 18.2837 104.3 18.2837C104.974 18.2837 105.563 18.406 106.069 18.6506C106.575 18.8953 106.976 19.2388 107.271 19.6811C107.566 20.1235 107.728 20.6429 107.758 21.2394H105.738C105.681 20.854 105.53 20.5441 105.285 20.3095C105.044 20.0715 104.727 19.9526 104.335 19.9526C104.003 19.9526 103.713 20.0431 103.465 20.224C103.221 20.4016 103.03 20.6613 102.892 21.0032C102.755 21.345 102.686 21.7589 102.686 22.2448C102.686 22.7374 102.753 23.1563 102.887 23.5015C103.025 23.8466 103.218 24.1097 103.465 24.2907C103.713 24.4716 104.003 24.5621 104.335 24.5621C104.58 24.5621 104.799 24.5118 104.994 24.4113C105.191 24.3108 105.354 24.165 105.481 23.974C105.612 23.7796 105.697 23.5467 105.738 23.2753H107.758C107.725 23.8651 107.564 24.3845 107.276 24.8335C106.991 25.2793 106.597 25.6278 106.094 25.8791C105.592 26.1305 104.997 26.2561 104.31 26.2561Z" fill="url(#paint6_linear_398_1903)"/>
<path d="M94.76 18.3843L96.1775 21.0836L97.6302 18.3843H99.8269L97.59 22.2448L99.8873 26.1054H97.7006L96.1775 23.4362L94.6795 26.1054H92.4678L94.76 22.2448L92.5482 18.3843H94.76Z" fill="url(#paint7_linear_398_1903)"/>
<path d="M84.3428 26.1053V15.8105H91.2797V17.6051H86.5194V20.0582H90.9228V21.8527H86.5194V24.3108H91.2998V26.1053H84.3428Z" fill="url(#paint8_linear_398_1903)"/>
<path d="M81.3383 26.2358C81.0065 26.2358 80.7216 26.1185 80.4837 25.8839C80.2491 25.646 80.1318 25.3611 80.1318 25.0294C80.1318 24.701 80.2491 24.4195 80.4837 24.1849C80.7216 23.9503 81.0065 23.833 81.3383 23.833C81.66 23.833 81.9415 23.9503 82.1827 24.1849C82.424 24.4195 82.5447 24.701 82.5447 25.0294C82.5447 25.2506 82.4877 25.4533 82.3738 25.6376C82.2632 25.8186 82.1174 25.9643 81.9364 26.0749C81.7555 26.1822 81.5561 26.2358 81.3383 26.2358Z" fill="url(#paint9_linear_398_1903)"/>
<path d="M78.6917 18.3845V19.9931H74.042V18.3845H78.6917ZM75.0976 16.5347H77.239V23.733C77.239 23.9307 77.2692 24.0848 77.3295 24.1954C77.3898 24.3027 77.4736 24.3781 77.5808 24.4216C77.6914 24.4652 77.8188 24.487 77.9629 24.487C78.0634 24.487 78.1639 24.4786 78.2645 24.4619C78.365 24.4418 78.4421 24.4267 78.4957 24.4166L78.8325 26.0101C78.7252 26.0436 78.5744 26.0821 78.3801 26.1257C78.1857 26.1726 77.9495 26.2011 77.6713 26.2112C77.1552 26.2313 76.7028 26.1626 76.3141 26.0051C75.9287 25.8476 75.6288 25.6029 75.4143 25.2712C75.1998 24.9394 75.0943 24.5205 75.0976 24.0145V16.5347Z" fill="url(#paint10_linear_398_1903)"/>
<path d="M69.392 26.2561C68.6112 26.2561 67.9359 26.0902 67.3662 25.7585C66.7999 25.4234 66.3626 24.9575 66.0543 24.361C65.746 23.7612 65.5918 23.0658 65.5918 22.2749C65.5918 21.4774 65.746 20.7803 66.0543 20.1838C66.3626 19.5839 66.7999 19.1181 67.3662 18.7864C67.9359 18.4512 68.6112 18.2837 69.392 18.2837C70.1728 18.2837 70.8464 18.4512 71.4128 18.7864C71.9825 19.1181 72.4215 19.5839 72.7298 20.1838C73.0381 20.7803 73.1922 21.4774 73.1922 22.2749C73.1922 23.0658 73.0381 23.7612 72.7298 24.361C72.4215 24.9575 71.9825 25.4234 71.4128 25.7585C70.8464 26.0902 70.1728 26.2561 69.392 26.2561ZM69.4021 24.5973C69.7573 24.5973 70.0539 24.4968 70.2918 24.2957C70.5297 24.0913 70.709 23.8131 70.8297 23.4612C70.9537 23.1094 71.0157 22.7089 71.0157 22.2599C71.0157 21.8108 70.9537 21.4103 70.8297 21.0585C70.709 20.7066 70.5297 20.4284 70.2918 20.224C70.0539 20.0196 69.7573 19.9174 69.4021 19.9174C69.0435 19.9174 68.7419 20.0196 68.4973 20.224C68.256 20.4284 68.0733 20.7066 67.9493 21.0585C67.8287 21.4103 67.7684 21.8108 67.7684 22.2599C67.7684 22.7089 67.8287 23.1094 67.9493 23.4612C68.0733 23.8131 68.256 24.0913 68.4973 24.2957C68.7419 24.4968 69.0435 24.5973 69.4021 24.5973Z" fill="url(#paint11_linear_398_1903)"/>
<path d="M60.7114 26.2561C59.9305 26.2561 59.2553 26.0902 58.6856 25.7585C58.1192 25.4234 57.6819 24.9575 57.3736 24.361C57.0653 23.7612 56.9111 23.0658 56.9111 22.2749C56.9111 21.4774 57.0653 20.7803 57.3736 20.1838C57.6819 19.5839 58.1192 19.1181 58.6856 18.7864C59.2553 18.4512 59.9305 18.2837 60.7114 18.2837C61.4922 18.2837 62.1658 18.4512 62.7321 18.7864C63.3018 19.1181 63.7408 19.5839 64.0491 20.1838C64.3574 20.7803 64.5116 21.4774 64.5116 22.2749C64.5116 23.0658 64.3574 23.7612 64.0491 24.361C63.7408 24.9575 63.3018 25.4234 62.7321 25.7585C62.1658 26.0902 61.4922 26.2561 60.7114 26.2561ZM60.7214 24.5973C61.0766 24.5973 61.3732 24.4968 61.6111 24.2957C61.8491 24.0913 62.0284 23.8131 62.149 23.4612C62.273 23.1094 62.335 22.7089 62.335 22.2599C62.335 21.8108 62.273 21.4103 62.149 21.0585C62.0284 20.7066 61.8491 20.4284 61.6111 20.224C61.3732 20.0196 61.0766 19.9174 60.7214 19.9174C60.3628 19.9174 60.0612 20.0196 59.8166 20.224C59.5753 20.4284 59.3927 20.7066 59.2687 21.0585C59.148 21.4103 59.0877 21.8108 59.0877 22.2599C59.0877 22.7089 59.148 23.1094 59.2687 23.4612C59.3927 23.8131 59.5753 24.0913 59.8166 24.2957C60.0612 24.4968 60.3628 24.5973 60.7214 24.5973Z" fill="url(#paint12_linear_398_1903)"/>
<path d="M51.79 26.1051V18.384H53.8661V19.7312H53.9465C54.0873 19.252 54.3235 18.8901 54.6553 18.6454C54.9871 18.3974 55.3691 18.2734 55.8014 18.2734C55.9086 18.2734 56.0242 18.2801 56.1482 18.2935C56.2722 18.3069 56.3811 18.3254 56.475 18.3488V20.249C56.3744 20.2188 56.2354 20.192 56.0578 20.1685C55.8801 20.1451 55.7176 20.1333 55.5702 20.1333C55.2551 20.1333 54.9737 20.202 54.7257 20.3394C54.481 20.4735 54.2867 20.6611 54.1426 20.9024C54.0018 21.1437 53.9314 21.4219 53.9314 21.7369V26.1051H51.79Z" fill="url(#paint13_linear_398_1903)"/>
<path d="M42.832 29.0007V18.3842H44.9433V19.6811H45.0388C45.1326 19.4734 45.2683 19.2622 45.4459 19.0478C45.6269 18.8299 45.8615 18.649 46.1497 18.5049C46.4412 18.3574 46.8032 18.2837 47.2355 18.2837C47.7985 18.2837 48.3179 18.4311 48.7938 18.726C49.2696 19.0176 49.65 19.4583 49.9348 20.0481C50.2197 20.6345 50.3621 21.3701 50.3621 22.2548C50.3621 23.1161 50.223 23.8433 49.9449 24.4364C49.6701 25.0262 49.2948 25.4736 48.8189 25.7786C48.3464 26.0802 47.8169 26.231 47.2304 26.231C46.8149 26.231 46.4613 26.1623 46.1698 26.0249C45.8816 25.8875 45.6453 25.7149 45.461 25.5071C45.2767 25.296 45.136 25.0832 45.0388 24.8687H44.9734V29.0007H42.832ZM44.9282 22.2448C44.9282 22.7039 44.9919 23.1043 45.1192 23.4462C45.2465 23.788 45.4309 24.0544 45.6721 24.2454C45.9134 24.4331 46.2067 24.5269 46.5518 24.5269C46.9004 24.5269 47.1953 24.4314 47.4365 24.2404C47.6778 24.046 47.8605 23.7779 47.9845 23.4361C48.1118 23.0909 48.1755 22.6938 48.1755 22.2448C48.1755 21.7991 48.1135 21.407 47.9895 21.0685C47.8655 20.73 47.6828 20.4653 47.4416 20.2743C47.2003 20.0833 46.9037 19.9878 46.5518 19.9878C46.2033 19.9878 45.9084 20.0799 45.6671 20.2642C45.4292 20.4485 45.2465 20.7099 45.1192 21.0484C44.9919 21.3869 44.9282 21.7857 44.9282 22.2448Z" fill="url(#paint14_linear_398_1903)"/>
<path d="M36.8224 26.2511C36.3298 26.2511 35.8908 26.1656 35.5054 25.9947C35.12 25.8205 34.8151 25.5641 34.5906 25.2256C34.3694 24.8838 34.2588 24.4582 34.2588 23.9488C34.2588 23.5199 34.3375 23.1596 34.495 22.8681C34.6526 22.5765 34.867 22.342 35.1385 22.1643C35.4099 21.9867 35.7182 21.8527 36.0634 21.7622C36.4119 21.6717 36.7772 21.6081 37.1592 21.5712C37.6083 21.5243 37.9702 21.4807 38.245 21.4405C38.5198 21.3969 38.7192 21.3333 38.8432 21.2495C38.9672 21.1657 39.0292 21.0417 39.0292 20.8775V20.8473C39.0292 20.529 38.9286 20.2827 38.7276 20.1084C38.5299 19.9341 38.2484 19.847 37.8831 19.847C37.4977 19.847 37.1911 19.9325 36.9632 20.1034C36.7353 20.2709 36.5845 20.4821 36.5108 20.7367L34.5302 20.5759C34.6308 20.1067 34.8285 19.7012 35.1234 19.3594C35.4183 19.0142 35.7987 18.7495 36.2645 18.5652C36.7336 18.3775 37.2765 18.2837 37.8931 18.2837C38.3221 18.2837 38.7326 18.334 39.1247 18.4345C39.5201 18.535 39.8703 18.6909 40.1753 18.902C40.4836 19.1131 40.7265 19.3846 40.9042 19.7163C41.0818 20.0447 41.1706 20.4385 41.1706 20.8976V26.1053H39.1398V25.0346H39.0794C38.9555 25.2759 38.7896 25.4887 38.5818 25.673C38.374 25.854 38.1244 25.9964 37.8328 26.1003C37.5413 26.2008 37.2045 26.2511 36.8224 26.2511ZM37.4357 24.7732C37.7507 24.7732 38.0289 24.7112 38.2701 24.5872C38.5114 24.4599 38.7008 24.289 38.8382 24.0745C38.9756 23.86 39.0443 23.6171 39.0443 23.3456V22.5263C38.9772 22.5698 38.8851 22.6101 38.7678 22.6469C38.6538 22.6804 38.5248 22.7123 38.3807 22.7424C38.2366 22.7692 38.0925 22.7944 37.9484 22.8178C37.8043 22.8379 37.6736 22.8564 37.5563 22.8731C37.305 22.91 37.0855 22.9686 36.8978 23.0491C36.7102 23.1295 36.5644 23.2384 36.4605 23.3758C36.3566 23.5098 36.3047 23.6774 36.3047 23.8785C36.3047 24.17 36.4102 24.3929 36.6214 24.547C36.8358 24.6978 37.1073 24.7732 37.4357 24.7732Z" fill="url(#paint15_linear_398_1903)"/>
<path d="M25.8643 17.6051V15.8105H34.3193V17.6051H31.1675V26.1053H29.016V17.6051H25.8643Z" fill="url(#paint16_linear_398_1903)"/>
<defs>
<linearGradient id="paint0_linear_398_1903" x1="15.0333" y1="3.21896" x2="35.3291" y2="32.2521" gradientUnits="userSpaceOnUse">
<stop stop-color="#5DBF69"/>
<stop offset="0.21" stop-color="#4CCC5C"/>
<stop offset="0.41" stop-color="#46C656"/>
<stop offset="0.828125" stop-color="#45E559"/>
<stop offset="1" stop-color="#46C756"/>
</linearGradient>
<linearGradient id="paint1_linear_398_1903" x1="67.0626" y1="10.6532" x2="70.3989" y2="38.375" gradientUnits="userSpaceOnUse">
<stop stop-color="#5DBF69"/>
<stop offset="0.21" stop-color="#4CCC5C"/>
<stop offset="0.41" stop-color="#46C656"/>
<stop offset="0.828125" stop-color="#45E559"/>
<stop offset="1" stop-color="#46C756"/>
</linearGradient>
<linearGradient id="paint2_linear_398_1903" x1="67.0625" y1="10.6532" x2="70.3988" y2="38.375" gradientUnits="userSpaceOnUse">
<stop stop-color="#5DBF69"/>
<stop offset="0.21" stop-color="#4CCC5C"/>
<stop offset="0.41" stop-color="#46C656"/>
<stop offset="0.828125" stop-color="#45E559"/>
<stop offset="1" stop-color="#46C756"/>
</linearGradient>
<linearGradient id="paint3_linear_398_1903" x1="67.063" y1="10.6532" x2="70.3993" y2="38.375" gradientUnits="userSpaceOnUse">
<stop stop-color="#5DBF69"/>
<stop offset="0.21" stop-color="#4CCC5C"/>
<stop offset="0.41" stop-color="#46C656"/>
<stop offset="0.828125" stop-color="#45E559"/>
<stop offset="1" stop-color="#46C756"/>
</linearGradient>
<linearGradient id="paint4_linear_398_1903" x1="67.0629" y1="10.6532" x2="70.3992" y2="38.375" gradientUnits="userSpaceOnUse">
<stop stop-color="#5DBF69"/>
<stop offset="0.21" stop-color="#4CCC5C"/>
<stop offset="0.41" stop-color="#46C656"/>
<stop offset="0.828125" stop-color="#45E559"/>
<stop offset="1" stop-color="#46C756"/>
</linearGradient>
<linearGradient id="paint5_linear_398_1903" x1="67.0626" y1="10.6532" x2="70.3989" y2="38.3751" gradientUnits="userSpaceOnUse">
<stop stop-color="#5DBF69"/>
<stop offset="0.21" stop-color="#4CCC5C"/>
<stop offset="0.41" stop-color="#46C656"/>
<stop offset="0.828125" stop-color="#45E559"/>
<stop offset="1" stop-color="#46C756"/>
</linearGradient>
<linearGradient id="paint6_linear_398_1903" x1="67.0621" y1="10.6532" x2="70.3984" y2="38.375" gradientUnits="userSpaceOnUse">
<stop stop-color="#5DBF69"/>
<stop offset="0.21" stop-color="#4CCC5C"/>
<stop offset="0.41" stop-color="#46C656"/>
<stop offset="0.828125" stop-color="#45E559"/>
<stop offset="1" stop-color="#46C756"/>
</linearGradient>
<linearGradient id="paint7_linear_398_1903" x1="67.0629" y1="10.6533" x2="70.3992" y2="38.3751" gradientUnits="userSpaceOnUse">
<stop stop-color="#5DBF69"/>
<stop offset="0.21" stop-color="#4CCC5C"/>
<stop offset="0.41" stop-color="#46C656"/>
<stop offset="0.828125" stop-color="#45E559"/>
<stop offset="1" stop-color="#46C756"/>
</linearGradient>
<linearGradient id="paint8_linear_398_1903" x1="67.0624" y1="10.6532" x2="70.3987" y2="38.3751" gradientUnits="userSpaceOnUse">
<stop stop-color="#5DBF69"/>
<stop offset="0.21" stop-color="#4CCC5C"/>
<stop offset="0.41" stop-color="#46C656"/>
<stop offset="0.828125" stop-color="#45E559"/>
<stop offset="1" stop-color="#46C756"/>
</linearGradient>
<linearGradient id="paint9_linear_398_1903" x1="67.0626" y1="10.653" x2="70.3989" y2="38.3748" gradientUnits="userSpaceOnUse">
<stop stop-color="#5DBF69"/>
<stop offset="0.21" stop-color="#4CCC5C"/>
<stop offset="0.41" stop-color="#46C656"/>
<stop offset="0.828125" stop-color="#45E559"/>
<stop offset="1" stop-color="#46C756"/>
</linearGradient>
<linearGradient id="paint10_linear_398_1903" x1="67.0627" y1="10.6535" x2="70.399" y2="38.3753" gradientUnits="userSpaceOnUse">
<stop stop-color="#5DBF69"/>
<stop offset="0.21" stop-color="#4CCC5C"/>
<stop offset="0.41" stop-color="#46C656"/>
<stop offset="0.828125" stop-color="#45E559"/>
<stop offset="1" stop-color="#46C756"/>
</linearGradient>
<linearGradient id="paint11_linear_398_1903" x1="67.0624" y1="10.6532" x2="70.3987" y2="38.375" gradientUnits="userSpaceOnUse">
<stop stop-color="#5DBF69"/>
<stop offset="0.21" stop-color="#4CCC5C"/>
<stop offset="0.41" stop-color="#46C656"/>
<stop offset="0.828125" stop-color="#45E559"/>
<stop offset="1" stop-color="#46C756"/>
</linearGradient>
<linearGradient id="paint12_linear_398_1903" x1="67.063" y1="10.6532" x2="70.3993" y2="38.375" gradientUnits="userSpaceOnUse">
<stop stop-color="#5DBF69"/>
<stop offset="0.21" stop-color="#4CCC5C"/>
<stop offset="0.41" stop-color="#46C656"/>
<stop offset="0.828125" stop-color="#45E559"/>
<stop offset="1" stop-color="#46C756"/>
</linearGradient>
<linearGradient id="paint13_linear_398_1903" x1="67.0629" y1="10.653" x2="70.3992" y2="38.3748" gradientUnits="userSpaceOnUse">
<stop stop-color="#5DBF69"/>
<stop offset="0.21" stop-color="#4CCC5C"/>
<stop offset="0.41" stop-color="#46C656"/>
<stop offset="0.828125" stop-color="#45E559"/>
<stop offset="1" stop-color="#46C756"/>
</linearGradient>
<linearGradient id="paint14_linear_398_1903" x1="67.0626" y1="10.6532" x2="70.3988" y2="38.375" gradientUnits="userSpaceOnUse">
<stop stop-color="#5DBF69"/>
<stop offset="0.21" stop-color="#4CCC5C"/>
<stop offset="0.41" stop-color="#46C656"/>
<stop offset="0.828125" stop-color="#45E559"/>
<stop offset="1" stop-color="#46C756"/>
</linearGradient>
<linearGradient id="paint15_linear_398_1903" x1="67.0624" y1="10.6532" x2="70.3987" y2="38.375" gradientUnits="userSpaceOnUse">
<stop stop-color="#5DBF69"/>
<stop offset="0.21" stop-color="#4CCC5C"/>
<stop offset="0.41" stop-color="#46C656"/>
<stop offset="0.828125" stop-color="#45E559"/>
<stop offset="1" stop-color="#46C756"/>
</linearGradient>
<linearGradient id="paint16_linear_398_1903" x1="67.0626" y1="10.6532" x2="70.3989" y2="38.3751" gradientUnits="userSpaceOnUse">
<stop stop-color="#5DBF69"/>
<stop offset="0.21" stop-color="#4CCC5C"/>
<stop offset="0.41" stop-color="#46C656"/>
<stop offset="0.828125" stop-color="#45E559"/>
<stop offset="1" stop-color="#46C756"/>
</linearGradient>
</defs>
</svg>
