<svg width="24" height="24" viewBox="0 0 24 24" fill="none" xmlns="http://www.w3.org/2000/svg">
<path d="M5 12.875C5 12.392 5.392 12 5.875 12H7.625C8.108 12 8.5 12.392 8.5 12.875V18.125C8.5 18.608 8.108 19 7.625 19H5.875C5.64294 19 5.42038 18.9078 5.25628 18.7437C5.09219 18.5796 5 18.3571 5 18.125V12.875ZM10.25 9.375C10.25 8.892 10.642 8.5 11.125 8.5H12.875C13.358 8.5 13.75 8.892 13.75 9.375V18.125C13.75 18.608 13.358 19 12.875 19H11.125C10.8929 19 10.6704 18.9078 10.5063 18.7437C10.3422 18.5796 10.25 18.3571 10.25 18.125V9.375ZM15.5 5.875C15.5 5.392 15.892 5 16.375 5H18.125C18.608 5 19 5.392 19 5.875V18.125C19 18.608 18.608 19 18.125 19H16.375C16.1429 19 15.9204 18.9078 15.7563 18.7437C15.5922 18.5796 15.5 18.3571 15.5 18.125V5.875Z" stroke="black" stroke-linecap="round" stroke-linejoin="round"/>
</svg>
